<?xml version="1.0" encoding="UTF-8"?>
<svg width="100px" height="100px" viewBox="0 0 100 100" version="1.1" xmlns="http://www.w3.org/2000/svg" xmlns:xlink="http://www.w3.org/1999/xlink">
    <!-- Generator: Sketch 46.2 (44496) - http://www.bohemiancoding.com/sketch -->
    <title>Group 16</title>
    <desc>Created with Sketch.</desc>
    <defs>
        <polygon id="path-1" points="0 49.9995 0 0.235 100 0.235 100 99.764 0 99.764"></polygon>
        <path d="M63.0105936,0.8994 C58.3982486,23.640745 38.2064566,40.764 13.999,40.764 C9.13950314,40.764 4.44184155,40.0739158 -0.000433808766,38.7868296 L-0.000433808765,0.8994 L63.0105936,0.8994 L63.0105936,0.8994 Z" id="path-3"></path>
        <path d="M64.0005338,38.4852071 C59.264799,39.9658052 54.225494,40.764 48.999,40.764 C24.8107897,40.764 4.63215165,23.6667238 -0.000110402684,0.951163525 L-0.000109256972,0.899 L64.0005338,0.899 L64.0005338,38.4852071 L64.0005338,38.4852071 Z" id="path-5"></path>
        <polygon id="path-7" points="0 49.9995 0 0.235 100 0.235 100 99.764 0 99.764"></polygon>
        <path d="M63.0105936,0.8994 C58.3982486,23.640745 38.2064566,40.764 13.999,40.764 C9.13950314,40.764 4.44184155,40.0739158 -0.000433808766,38.7868296 L-0.000433808765,0.8994 L63.0105936,0.8994 L63.0105936,0.8994 Z" id="path-9"></path>
        <path d="M64.0005338,38.4852071 C59.264799,39.9658052 54.225494,40.764 48.999,40.764 C24.8107897,40.764 4.63215165,23.6667238 -0.000110402684,0.951163525 L-0.000109256972,0.899 L64.0005338,0.899 L64.0005338,38.4852071 L64.0005338,38.4852071 Z" id="path-11"></path>
    </defs>
    <g id="App-3.3" stroke="none" stroke-width="1" fill="none" fill-rule="evenodd">
        <g id="3.1-Counter-Offer" transform="translate(-391.000000, -579.000000)">
            <g id="Mortgage-Refi-Copy" transform="translate(310.000000, 549.000000)">
                <g id="Group-16" transform="translate(81.000000, 29.000000)">
                    <circle id="Oval-Copy-2" fill="#E2F4FE" cx="50" cy="51" r="50"></circle>
                    <g id="Page-1">
                        <g id="Group-3" transform="translate(0.000000, 0.765000)">
                            <mask id="mask-2" fill="white">
                                <use xlink:href="#path-1"></use>
                            </mask>
                            <g id="Clip-2"></g>
                            <path d="M100,50 C100,77.483 77.612,99.764 50,99.764 C22.386,99.764 0,77.483 0,50 C0,22.515 22.386,0.234 50,0.234 C77.612,0.234 100,22.515 100,50" id="Fill-1" fill="#FFFFFF" mask="url(#mask-2)"></path>
                        </g>
                        <g id="Group-24" transform="translate(1.000000, 15.765000)">
                            <path d="M40.0151,46 L40.0151,54 L42.6861,52 L42.6861,58 L45.3571,56 L46.6921,60 L48.0281,55 L50.6991,58 L50.6991,52 C50.6991,48.25 48.3341,21.662 48.3341,21.662 L39.9551,37.961 L40.0151,46 Z" id="Fill-4" fill="#C01823"></path>
                            <path d="M88.6377,15.6025 C92.3307,15.6025 92.3307,24.5455 88.6377,24.5455 C88.6377,35.7235 81.9307,37.9605 81.9307,37.9605 L81.9307,49.1385 C81.9307,49.1385 85.3847,50.5525 86.4387,51.2335 C87.4927,51.9135 85.9047,54.0285 85.9047,54.0285 L82.0147,61.8785 L71.5697,65.1925 L59.9697,50.6965 L64.1407,49.3345 L64.0447,37.9605 C64.0447,37.9605 57.3377,35.7245 57.3377,24.5455 C53.6447,24.5455 53.6447,15.6025 57.3377,15.6025 L65.4127,0.1965 L81.3197,0.4355 L88.6377,15.6025 Z" id="Fill-6" fill="#825000"></path>
                            <g id="Group-10" transform="translate(35.000000, 44.000000)">
                                <mask id="mask-4" fill="white">
                                    <use xlink:href="#path-3"></use>
                                </mask>
                                <g id="Clip-9"></g>
                                <path d="M52.8438,40.3594 C52.8438,40.3594 74.1138,14.5674 67.8438,10.3594 C61.1848,5.8894 49.5138,0.8994 49.5138,0.8994 L37.8588,14.1684 C37.8588,14.1684 28.1268,3.3604 26.2038,0.8994 C24.0778,1.5404 13.9028,4.8554 6.6438,8.3964 C-0.1432,11.7064 -0.0002,47.0004 -0.0002,47.0004 C-0.0002,47.0004 14.5388,48.7124 16.8438,49.0004 C16.8438,48.9994 38.0938,45.8594 52.8438,40.3594" id="Fill-8" fill="#009FD6" mask="url(#mask-4)"></path>
                            </g>
                            <polygon id="Fill-11" fill="#99D8EF" points="85.8955 45.4834 82.4105 43.9714 73.0665 54.9974 63.5635 44.1304 59.1155 45.5634 73.0245 60.9114"></polygon>
                            <path d="M11,13 C11,13 12.167,21 11,26 C9.833,31 9.667,45.667 10,51 C10.333,56.333 12,62 12,62 L14,59 L16,61 L18,56 L19,63 C19,63 20.5,59.667 21,58 C21.5,56.333 23,58 23,58 C23,58 22.306,50.444 22.069,49.139 C21.833,47.833 22.069,37.961 22.069,37.961 L15,12 L11,13 Z" id="Fill-13" fill="#C01823"></path>
                            <path d="M22.6802,0.4355 L38.5872,0.1965 L46.6622,15.6025 C50.3552,15.6025 50.3552,24.5455 46.6622,24.5455 C46.6622,35.7245 39.9552,37.9605 39.9552,37.9605 L39.8592,49.3345 L44.0302,50.6965 L41.3812,72.4095 L20.2622,65.3695 L18.0952,54.0285 C18.0952,54.0285 16.5072,51.9135 17.5612,51.2335 C18.6152,50.5525 22.0692,49.1385 22.0692,49.1385 L22.0692,37.9605 C22.0692,37.9605 15.3622,35.7235 15.3622,24.5455 C11.6692,24.5455 11.6692,15.6025 15.3622,15.6025 L22.6802,0.4355 Z" id="Fill-15" fill="#EDCC9A"></path>
                            <g id="Group-19" transform="translate(0.000000, 44.000000)">
                                <mask id="mask-6" fill="white">
                                    <use xlink:href="#path-5"></use>
                                </mask>
                                <g id="Clip-18"></g>
                                <path d="M52.1563,44 C54.4613,43.712 64.0003,41 64.0003,41 C64.0003,41 64.1433,10.706 57.3563,7.396 C50.0973,3.855 44.9223,1.54 42.7963,0.899 C43.1913,4.372 42.8303,16.168 31.1413,16.168 C20.2613,16.168 19.4863,0.899 19.4863,0.899 C19.4863,0.899 7.8153,5.89 1.1563,10.359 C-5.1137,14.567 16.1563,40.359 16.1563,40.359 C30.9063,45.859 52.1563,43.999 52.1563,44" id="Fill-17" fill="#01172A" mask="url(#mask-6)"></path>
                            </g>
                            <path d="M10,51 C10.333,56.333 12,62 12,62 L14,59 L16,61 L18,56 L19,63 C19,63 20.5,59.667 21,58 C21.5,56.333 23,58 23,58 C23,58 22.52,51.058 22.284,49.752 C22.048,48.446 22.069,37.961 22.069,37.961 C22.069,37.961 9.667,45.667 10,51" id="Fill-20" fill="#C01823"></path>
                            <path d="M40.0151,46 L40.0151,58 C40.0151,58 42.4271,55.192 42.6861,56 C42.9451,56.808 43.5941,58.918 43.5941,58.918 L45.2171,57.619 L46.5151,62.002 C46.5151,62.002 47.4901,57.944 48.3011,56.808 C49.1131,55.672 50.6991,58 50.6991,58 L50.6991,52 C50.6991,50.67 50.1951,47.516 49.5441,43.999 C48.3611,37.601 40.0151,46 40.0151,46" id="Fill-22" fill="#C01823"></path>
                        </g>
                        <g id="Group-34" transform="translate(0.000000, 0.765000)">
                            <path d="M91.1616,18.2061 C91.1616,12.0831 81.3106,7.3171 73.9306,7.0001 C66.5506,7.3181 56.6996,12.0831 56.6996,18.2061 C56.6996,24.0871 58.3376,30.0861 58.3376,30.6021 C58.3376,30.6021 62.1716,24.1231 64.2776,20.9081 C64.8346,20.5481 65.2896,20.2431 65.5016,20.2801 C66.0666,20.3811 66.0086,21.1841 65.7476,22.0891 C65.5886,22.6431 66.1066,23.1631 66.6636,23.0111 C68.2376,22.5811 69.5086,21.4351 70.0216,21.7001 C70.5696,21.9831 70.7846,22.5641 70.7066,23.1411 C70.6366,23.6581 71.1866,24.0671 71.6796,23.8961 C74.0586,23.0711 74.5336,21.1321 75.2186,22.0731 C75.4196,22.3481 75.8726,22.8161 76.1806,23.2951 C76.5606,23.8871 77.3916,24.0251 77.8936,23.5331 C79.2816,22.1721 80.1746,20.4241 80.5756,20.5781 C81.1426,20.7951 81.8346,22.2271 82.0646,23.2671 C82.1766,23.7761 83.0216,24.0241 83.4506,23.7271 C83.8766,23.4321 84.2716,23.0021 84.6296,22.5281 C86.7836,25.9101 89.6376,30.6031 89.6376,30.6031 C89.6376,30.0861 91.1616,24.0871 91.1616,18.2061" id="Fill-25" fill="#000000"></path>
                            <path d="M20,17 C20,17 26.545,27.746 41,32 C44.473,33.021 46.966,37.259 47.375,43.25 C47.375,43.25 51,41.667 51,35 C51,28.333 47.667,8 31,8 C22,8 20,17 20,17" id="Fill-27" fill="#C01823"></path>
                            <path d="M25,14 C25,14 19.833,10 16,12 C12.167,14 7.333,25.667 14,33 C14,33 25,28.667 25,14" id="Fill-29" fill="#C01823"></path>
                            <g id="Group-33">
                                <mask id="mask-8" fill="white">
                                    <use xlink:href="#path-7"></use>
                                </mask>
                                <g id="Clip-32"></g>
                                <path d="M100,50 C100,77.483 77.612,99.764 50,99.764 C22.386,99.764 0,77.483 0,50 C0,22.515 22.386,0.234 50,0.234 C77.612,0.234 100,22.515 100,50" id="Fill-31" fill="#E6E7E8" mask="url(#mask-8)"></path>
                            </g>
                        </g>
                        <g id="Group-55" transform="translate(1.000000, 15.765000)">
                            <path d="M40.0151,46 L40.0151,54 L42.6861,52 L42.6861,58 L45.3571,56 L46.6921,60 L48.0281,55 L50.6991,58 L50.6991,52 C50.6991,48.25 48.3341,21.662 48.3341,21.662 L39.9551,37.961 L40.0151,46 Z" id="Fill-35" fill="#C01823"></path>
                            <path d="M88.6377,15.6025 C92.3307,15.6025 92.3307,24.5455 88.6377,24.5455 C88.6377,35.7235 81.9307,37.9605 81.9307,37.9605 L81.9307,49.1385 C81.9307,49.1385 85.3847,50.5525 86.4387,51.2335 C87.4927,51.9135 85.9047,54.0285 85.9047,54.0285 L82.0147,61.8785 L71.5697,65.1925 L59.9697,50.6965 L64.1407,49.3345 L64.0447,37.9605 C64.0447,37.9605 57.3377,35.7245 57.3377,24.5455 C53.6447,24.5455 53.6447,15.6025 57.3377,15.6025 L65.4127,0.1965 L81.3197,0.4355 L88.6377,15.6025 Z" id="Fill-37" fill="#825000"></path>
                            <g id="Group-41" transform="translate(35.000000, 44.000000)">
                                <mask id="mask-10" fill="white">
                                    <use xlink:href="#path-9"></use>
                                </mask>
                                <g id="Clip-40"></g>
                                <path d="M52.8438,40.3594 C52.8438,40.3594 74.1138,14.5674 67.8438,10.3594 C61.1848,5.8894 49.5138,0.8994 49.5138,0.8994 L37.8588,14.1684 C37.8588,14.1684 28.1268,3.3604 26.2038,0.8994 C24.0778,1.5404 13.9028,4.8554 6.6438,8.3964 C-0.1432,11.7064 -0.0002,47.0004 -0.0002,47.0004 C-0.0002,47.0004 14.5388,48.7124 16.8438,49.0004 C16.8438,48.9994 38.0938,45.8594 52.8438,40.3594" id="Fill-39" fill="#009FD6" mask="url(#mask-10)"></path>
                            </g>
                            <polygon id="Fill-42" fill="#99D8EF" points="85.8955 45.4834 82.4105 43.9714 73.0665 54.9974 63.5635 44.1304 59.1155 45.5634 73.0245 60.9114"></polygon>
                            <path d="M11,13 C11,13 12.167,21 11,26 C9.833,31 9.667,45.667 10,51 C10.333,56.333 12,62 12,62 L14,59 L16,61 L18,56 L19,63 C19,63 20.5,59.667 21,58 C21.5,56.333 23,58 23,58 C23,58 22.306,50.444 22.069,49.139 C21.833,47.833 22.069,37.961 22.069,37.961 L15,12 L11,13 Z" id="Fill-44" fill="#C01823"></path>
                            <path d="M22.6802,0.4355 L38.5872,0.1965 L46.6622,15.6025 C50.3552,15.6025 50.3552,24.5455 46.6622,24.5455 C46.6622,35.7245 39.9552,37.9605 39.9552,37.9605 L39.8592,49.3345 L44.0302,50.6965 L41.3812,72.4095 L20.2622,65.3695 L18.0952,54.0285 C18.0952,54.0285 16.5072,51.9135 17.5612,51.2335 C18.6152,50.5525 22.0692,49.1385 22.0692,49.1385 L22.0692,37.9605 C22.0692,37.9605 15.3622,35.7235 15.3622,24.5455 C11.6692,24.5455 11.6692,15.6025 15.3622,15.6025 L22.6802,0.4355 Z" id="Fill-46" fill="#EDCC9A"></path>
                            <g id="Group-50" transform="translate(0.000000, 44.000000)">
                                <mask id="mask-12" fill="white">
                                    <use xlink:href="#path-11"></use>
                                </mask>
                                <g id="Clip-49"></g>
                                <path d="M52.1563,44 C54.4613,43.712 64.0003,41 64.0003,41 C64.0003,41 64.1433,10.706 57.3563,7.396 C50.0973,3.855 44.9223,1.54 42.7963,0.899 C43.1913,4.372 42.8303,16.168 31.1413,16.168 C20.2613,16.168 19.4863,0.899 19.4863,0.899 C19.4863,0.899 7.8153,5.89 1.1563,10.359 C-5.1137,14.567 16.1563,40.359 16.1563,40.359 C30.9063,45.859 52.1563,43.999 52.1563,44" id="Fill-48" fill="#01172A" mask="url(#mask-12)"></path>
                            </g>
                            <path d="M10,51 C10.333,56.333 12,62 12,62 L14,59 L16,61 L18,56 L19,63 C19,63 20.5,59.667 21,58 C21.5,56.333 23,58 23,58 C23,58 22.52,51.058 22.284,49.752 C22.048,48.446 22.069,37.961 22.069,37.961 C22.069,37.961 9.667,45.667 10,51" id="Fill-51" fill="#C01823"></path>
                            <path d="M40.0151,46 L40.0151,58 C40.0151,58 42.4271,55.192 42.6861,56 C42.9451,56.808 43.5941,58.918 43.5941,58.918 L45.2171,57.619 L46.5151,62.002 C46.5151,62.002 47.4901,57.944 48.3011,56.808 C49.1131,55.672 50.6991,58 50.6991,58 L50.6991,52 C50.6991,50.67 50.1951,47.516 49.5441,43.999 C48.3611,37.601 40.0151,46 40.0151,46" id="Fill-53" fill="#C01823"></path>
                        </g>
                        <g id="Group-62" transform="translate(10.000000, 7.765000)">
                            <path d="M81.1616,11.2061 C81.1616,5.0831 71.3106,0.3171 63.9306,0.0001 C56.5506,0.3181 46.6996,5.0831 46.6996,11.2061 C46.6996,17.0871 48.3376,23.0861 48.3376,23.6021 C48.3376,23.6021 52.1716,17.1231 54.2776,13.9081 C54.8346,13.5481 55.2896,13.2431 55.5016,13.2801 C56.0666,13.3811 56.0086,14.1841 55.7476,15.0891 C55.5886,15.6431 56.1066,16.1631 56.6636,16.0111 C58.2376,15.5811 59.5086,14.4351 60.0216,14.7001 C60.5696,14.9831 60.7846,15.5641 60.7066,16.1411 C60.6366,16.6581 61.1866,17.0671 61.6796,16.8961 C64.0586,16.0711 64.5336,14.1321 65.2186,15.0731 C65.4196,15.3481 65.8726,15.8161 66.1806,16.2951 C66.5606,16.8871 67.3916,17.0251 67.8936,16.5331 C69.2816,15.1721 70.1746,13.4241 70.5756,13.5781 C71.1426,13.7951 71.8346,15.2271 72.0646,16.2671 C72.1766,16.7761 73.0216,17.0241 73.4506,16.7271 C73.8766,16.4321 74.2716,16.0021 74.6296,15.5281 C76.7836,18.9101 79.6376,23.6031 79.6376,23.6031 C79.6376,23.0861 81.1616,17.0871 81.1616,11.2061" id="Fill-56" fill="#000000"></path>
                            <path d="M10,10 C10,10 16.545,20.746 31,25 C34.473,26.021 36.966,30.259 37.375,36.25 C37.375,36.25 41,34.667 41,28 C41,21.333 37.667,1 21,1 C12,1 10,10 10,10" id="Fill-58" fill="#C01823"></path>
                            <path d="M15,7 C15,7 9.833,3 6,5 C2.167,7 -2.667,18.667 4,26 C4,26 15,21.667 15,7" id="Fill-60" fill="#C01823"></path>
                        </g>
                    </g>
                </g>
            </g>
        </g>
    </g>
</svg>