<?xml version="1.0" encoding="UTF-8"?>
<svg width="100px" height="100px" viewBox="0 0 100 100" version="1.1" xmlns="http://www.w3.org/2000/svg" xmlns:xlink="http://www.w3.org/1999/xlink">
    <!-- Generator: Sketch 46.2 (44496) - http://www.bohemiancoding.com/sketch -->
    <title>Group 5</title>
    <desc>Created with Sketch.</desc>
    <defs>
        <circle id="path-1" cx="50" cy="50" r="50"></circle>
        <path d="M0.607399989,49.9358639 C0.716330336,22.4158342 23.0604124,0.139 50.607,0.139 C78.222,0.139 100.607,22.525 100.607,50.138 C100.607,77.6776241 78.3440342,100.016755 50.8330105,100.1385 L50.3809976,100.1385 C22.9383027,100.017053 0.716032279,77.7868598 0.607399989,50.3401508 L0.6074,49.935861 L0.607399989,49.9358639 Z" id="path-3"></path>
        <path d="M0.112670775,0.97060538 C8.40769563,17.1033957 25.2187268,28.139 44.607,28.139 C63.9959753,28.139 80.8067227,17.1033957 89.1015161,0.97060538 L0.112668009,0.9706 L0.112670775,0.97060538 Z" id="path-5"></path>
    </defs>
    <g id="App-3.3" stroke="none" stroke-width="1" fill="none" fill-rule="evenodd">
        <g id="3.1-Counter-Offer" transform="translate(-950.000000, -579.000000)">
            <g id="Home-Improv-Copy" transform="translate(870.000000, 549.000000)">
                <g id="Group-5" transform="translate(80.000000, 30.000000)">
                    <mask id="mask-2" fill="white">
                        <use xlink:href="#path-1"></use>
                    </mask>
                    <use id="Oval" fill="#E2F4FE" xlink:href="#path-1"></use>
                    <g id="Page-1" mask="url(#mask-2)">
                        <g transform="translate(0.000000, -2.000000)">
                            <g id="Group-3" stroke="none" stroke-width="1" fill="none" fill-rule="evenodd" transform="translate(0.000000, 0.361000)">
                                <mask id="mask-4" fill="white">
                                    <use xlink:href="#path-3"></use>
                                </mask>
                                <g id="Clip-2"></g>
                                <path d="M100.6074,50.1385 C100.6074,77.7525 78.2214,100.1385 50.6074,100.1385 C22.9934,100.1385 0.6074,77.7525 0.6074,50.1385 C0.6074,22.5245 22.9934,0.1385 50.6074,0.1385 C78.2214,0.1385 100.6074,22.5245 100.6074,50.1385" id="Fill-1" fill="#737F89" mask="url(#mask-4)"></path>
                            </g>
                            <g id="Group-6" stroke="none" stroke-width="1" fill="none" fill-rule="evenodd" transform="translate(6.000000, 72.361000)">
                                <mask id="mask-6" fill="white">
                                    <use xlink:href="#path-5"></use>
                                </mask>
                                <g id="Clip-5"></g>
                                <polygon id="Fill-4" fill="#344655" mask="url(#mask-6)" points="-5.3926 0.9706 94.6074 0.9706 94.5284 28.9996 -5.4716 28.9996"></polygon>
                            </g>
                            <path d="M58.8701,37.9863 C58.6851,37.8523 58.4621,37.7803 58.2331,37.7803 L42.9821,37.7803 C42.7531,37.7803 42.5301,37.8523 42.3451,37.9863 C36.5261,42.1833 27.7311,53.8003 27.7311,61.7463 C27.7311,68.2563 30.7041,79.1753 50.6071,79.1753 C70.5111,79.1753 73.4841,68.2563 73.4841,61.7463 C73.4841,53.8003 64.6881,42.1833 58.8701,37.9863" id="Fill-7" stroke="none" fill="#F8CC01" fill-rule="evenodd"></path>
                            <path d="M42.9824,35.5132 C42.9824,36.1142 43.4684,36.6022 44.0714,36.6022 L57.1434,36.6022 C57.7464,36.6022 58.2334,36.1142 58.2334,35.5132 C58.2334,30.5302 63.3764,24.2892 63.4274,24.2272 C63.7444,23.8472 63.7644,23.3022 63.4784,22.8992 C63.1914,22.4952 62.6704,22.3372 62.2074,22.5092 L54.4114,25.4342 L51.5824,19.7752 C51.2114,19.0362 50.0034,19.0362 49.6324,19.7752 L46.8034,25.4342 L39.0074,22.5092 C38.5434,22.3362 38.0214,22.4962 37.7364,22.8992 C37.4504,23.3022 37.4704,23.8482 37.7874,24.2272 C37.8384,24.2892 42.9824,30.5182 42.9824,35.5132" id="Fill-9" stroke="none" fill="#F8CC01" fill-rule="evenodd"></path>
                            <path d="M50.6074,26.4404 L54.4114,25.4344 L50.6074,26.4404 Z" id="Fill-11" stroke="none" fill="#F3F3F4" fill-rule="evenodd"></path>
                            <path d="M46.8037,25.4341 L49.5847,26.1701 C50.2547,26.3471 50.9597,26.3471 51.6297,26.1701 L54.4107,25.4341 C54.4107,25.4341 51.9327,20.5471 51.5817,19.7751 C51.2327,19.0031 50.0667,18.9081 49.6327,19.7751 C49.1997,20.6421 46.8037,25.4341 46.8037,25.4341" id="Fill-13" stroke="none" fill="#FDDE00" fill-rule="evenodd"></path>
                            <path d="M42.9824,35.6016 C42.3794,35.6016 41.8924,36.0896 41.8924,36.6906 C41.8924,37.2916 42.3794,37.7806 42.9824,37.7806 L58.2334,37.7806 C58.8354,37.7806 59.3224,37.2916 59.3224,36.6906 C59.3224,36.0896 58.8354,35.6016 58.2334,35.6016 L42.9824,35.6016 Z" id="Fill-15" stroke="none" fill="#FFFFFF" fill-rule="evenodd"></path>
                            <path d="M51.2549,57.7319 L51.2549,51.6549 C52.6009,51.7819 53.7059,52.2859 54.5519,53.1549 C54.5519,53.1549 54.9819,53.6479 55.3689,53.2739 C55.7569,52.9009 55.3269,52.4569 55.3269,52.4569 C54.2999,51.4289 52.9009,50.8289 51.2549,50.7059 L51.2549,49.1539 C51.2549,49.1539 51.2419,48.6739 50.7389,48.6739 C50.2349,48.6739 50.2279,49.1539 50.2279,49.1539 L50.2279,50.6779 C47.0379,50.8209 45.5809,52.7939 45.5809,54.5919 C45.5809,57.2399 48.0249,57.9339 50.2279,58.5219 L50.2279,65.3369 C48.1599,65.2019 46.8269,64.1539 46.1389,63.3999 C46.1389,63.3999 45.7299,62.9519 45.3249,63.3439 C44.9619,63.6939 45.3129,64.0909 45.3129,64.0909 C46.4689,65.4129 48.2549,66.1899 50.2319,66.2819 L50.2319,67.7339 C50.2319,67.7339 50.2149,68.2429 50.7429,68.2429 C51.2719,68.2429 51.2589,67.7339 51.2589,67.7339 L51.2589,66.2579 C54.7829,66.0439 56.0409,63.9909 56.0409,62.1259 C56.0369,59.3429 53.7879,58.4499 51.2549,57.7319 L51.2549,57.7319 Z M50.2279,57.4499 C48.2049,56.8669 46.6789,56.2549 46.6789,54.5919 C46.6789,53.0009 48.1929,51.7459 50.2279,51.6269 L50.2279,57.4499 Z M51.2549,65.3329 L51.2549,58.8039 C53.2889,59.4029 54.9399,60.0979 54.9399,62.1299 C54.9399,62.8199 54.6719,65.0749 51.2549,65.3329 L51.2549,65.3329 Z" id="Fill-17" stroke="none" fill="#565F67" fill-rule="evenodd"></path>
                            <path d="M51.2549,57.7319 L51.2549,51.6549 C52.6009,51.7819 53.7059,52.2859 54.5519,53.1549 C54.5519,53.1549 54.9819,53.6479 55.3689,53.2739 C55.7569,52.9009 55.3269,52.4569 55.3269,52.4569 C54.2999,51.4289 52.9009,50.8289 51.2549,50.7059 L51.2549,49.1539 C51.2549,49.1539 51.2419,48.6739 50.7389,48.6739 C50.2349,48.6739 50.2279,49.1539 50.2279,49.1539 L50.2279,50.6779 C47.0379,50.8209 45.5809,52.7939 45.5809,54.5919 C45.5809,57.2399 48.0249,57.9339 50.2279,58.5219 L50.2279,65.3369 C48.1599,65.2019 46.8269,64.1539 46.1389,63.3999 C46.1389,63.3999 45.7299,62.9519 45.3249,63.3439 C44.9619,63.6939 45.3129,64.0909 45.3129,64.0909 C46.4689,65.4129 48.2549,66.1899 50.2319,66.2819 L50.2319,67.7339 C50.2319,67.7339 50.2149,68.2429 50.7429,68.2429 C51.2719,68.2429 51.2589,67.7339 51.2589,67.7339 L51.2589,66.2579 C54.7829,66.0439 56.0409,63.9909 56.0409,62.1259 C56.0369,59.3429 53.7879,58.4499 51.2549,57.7319 Z M50.2279,57.4499 C48.2049,56.8669 46.6789,56.2549 46.6789,54.5919 C46.6789,53.0009 48.1929,51.7459 50.2279,51.6269 L50.2279,57.4499 Z M51.2549,65.3329 L51.2549,58.8039 C53.2889,59.4029 54.9399,60.0979 54.9399,62.1299 C54.9399,62.8199 54.6719,65.0749 51.2549,65.3329 Z" id="Stroke-19" stroke="#565F67" stroke-width="1" fill="none"></path>
                            <path d="M66.6094,76.5117 L66.6094,78.1817 C66.6094,80.0207 71.6384,80.5117 74.6094,80.5117 C77.5814,80.5117 82.6094,80.0207 82.6094,78.1817 L82.6094,76.5117 C80.8254,77.5367 76.5234,77.7927 74.6094,77.7927 C72.6964,77.7927 68.3944,77.5367 66.6094,76.5117" id="Fill-21" stroke="none" fill="#D7D6D9" fill-rule="evenodd"></path>
                            <path d="M82.6094,77.0659 L82.6094,75.5119 C80.8254,76.4659 76.5234,76.7039 74.6094,76.7039 C72.6964,76.7039 68.3944,76.4659 66.6094,75.5119 L66.6094,77.0659 C66.6094,77.6339 70.0454,78.5119 74.6094,78.5119 C79.1744,78.5119 82.6094,77.6339 82.6094,77.0659" id="Fill-23" stroke="none" fill="#C2C0C6" fill-rule="evenodd"></path>
                            <path d="M74.6094,77.0117 C79.1744,77.0117 82.6094,76.1347 82.6094,75.5657 L82.6094,74.0117 C80.8254,74.9667 76.5234,75.2037 74.6094,75.2037 C72.6964,75.2037 68.3944,74.9667 66.6094,74.0117 L66.6094,75.5657 C66.6094,76.1347 70.0454,77.0117 74.6094,77.0117" id="Fill-25" stroke="none" fill="#D7D6D9" fill-rule="evenodd"></path>
                            <path d="M82.6094,74.0659 L82.6094,72.5119 C80.8254,73.4659 76.5234,73.7039 74.6094,73.7039 C72.6964,73.7039 68.3944,73.4659 66.6094,72.5119 L66.6094,74.0659 C66.6094,74.6339 70.0454,75.5119 74.6094,75.5119 C79.1744,75.5119 82.6094,74.6339 82.6094,74.0659" id="Fill-27" stroke="none" fill="#C2C0C6" fill-rule="evenodd"></path>
                            <path d="M74.6094,74.0117 C79.1744,74.0117 82.6094,73.1407 82.6094,72.5757 L82.6094,71.0117 C80.9814,71.8747 77.2134,72.2177 74.6094,72.2177 C72.0064,72.2177 68.2384,71.8747 66.6094,71.0117 L66.6094,72.5757 C66.6094,73.1407 70.0454,74.0117 74.6094,74.0117" id="Fill-29" stroke="none" fill="#D7D6D9" fill-rule="evenodd"></path>
                            <path d="M82.6094,71.0659 L82.6094,69.5119 C80.8254,70.4659 76.5234,70.7039 74.6094,70.7039 C72.6964,70.7039 68.3944,70.4659 66.6094,69.5119 L66.6094,71.0659 C66.6094,71.6339 70.0454,72.5119 74.6094,72.5119 C79.1744,72.5119 82.6094,71.6339 82.6094,71.0659" id="Fill-31" stroke="none" fill="#C2C0C6" fill-rule="evenodd"></path>
                            <path d="M74.6094,71.0117 C79.1744,71.0117 82.6094,70.1347 82.6094,69.5657 L82.6094,68.0117 C80.8254,68.9667 76.5234,69.2037 74.6094,69.2037 C72.6964,69.2037 68.3944,68.9667 66.6094,68.0117 L66.6094,69.5657 C66.6094,70.1347 70.0454,71.0117 74.6094,71.0117" id="Fill-33" stroke="none" fill="#D7D6D9" fill-rule="evenodd"></path>
                            <path d="M82.6094,68.0659 L82.6094,66.5119 C80.8254,67.4659 76.5234,67.7039 74.6094,67.7039 C72.6964,67.7039 68.3944,67.4659 66.6094,66.5119 L66.6094,68.0659 C66.6094,68.6339 70.0454,69.5119 74.6094,69.5119 C79.1744,69.5119 82.6094,68.6339 82.6094,68.0659" id="Fill-35" stroke="none" fill="#C2C0C6" fill-rule="evenodd"></path>
                            <path d="M74.6094,68.0117 C79.1744,68.0117 82.6094,67.1407 82.6094,66.5757 L82.6094,65.0117 C80.9814,65.8747 77.2134,66.2177 74.6094,66.2177 C72.0064,66.2177 68.2384,65.8747 66.6094,65.0117 L66.6094,66.5757 C66.6094,67.1407 70.0454,68.0117 74.6094,68.0117" id="Fill-37" stroke="none" fill="#D7D6D9" fill-rule="evenodd"></path>
                            <path d="M74.6094,66.5117 C79.8594,66.5117 82.6094,65.3227 82.6094,64.9117 C82.6094,63.2617 78.4634,62.5117 74.6094,62.5117 C70.7564,62.5117 66.6094,63.2617 66.6094,64.9117 C66.6094,65.3227 69.3604,66.5117 74.6094,66.5117" id="Fill-39" stroke="none" fill="#EBEAEC" fill-rule="evenodd"></path>
                            <path d="M76.6094,80.5117 L76.6094,82.1817 C76.6094,84.0207 81.6384,84.5117 84.6094,84.5117 C87.5814,84.5117 92.6094,84.0207 92.6094,82.1817 L92.6094,80.5117 C90.8254,81.5367 86.5234,81.7927 84.6094,81.7927 C82.6964,81.7927 78.3944,81.5367 76.6094,80.5117" id="Fill-41" stroke="none" fill="#D7D6D9" fill-rule="evenodd"></path>
                            <path d="M92.6094,81.0659 L92.6094,79.5119 C90.8254,80.4659 86.5234,80.7039 84.6094,80.7039 C82.6964,80.7039 78.3944,80.4659 76.6094,79.5119 L76.6094,81.0659 C76.6094,81.6339 80.0454,82.5119 84.6094,82.5119 C89.1744,82.5119 92.6094,81.6339 92.6094,81.0659" id="Fill-43" stroke="none" fill="#C2C0C6" fill-rule="evenodd"></path>
                            <path d="M84.6094,81.0117 C89.1744,81.0117 92.6094,80.1407 92.6094,79.5757 L92.6094,78.0117 C90.9814,78.8747 87.2134,79.2177 84.6094,79.2177 C82.0064,79.2177 78.2384,78.8747 76.6094,78.0117 L76.6094,79.5757 C76.6094,80.1407 80.0454,81.0117 84.6094,81.0117" id="Fill-45" stroke="none" fill="#D7D6D9" fill-rule="evenodd"></path>
                            <path d="M84.6094,79.5117 C89.8594,79.5117 92.6094,78.3227 92.6094,77.9117 C92.6094,76.2617 88.4634,75.5117 84.6094,75.5117 C80.7564,75.5117 76.6094,76.2617 76.6094,77.9117 C76.6094,78.3227 79.3604,79.5117 84.6094,79.5117" id="Fill-47" stroke="none" fill="#EBEAEC" fill-rule="evenodd"></path>
                        </g>
                    </g>
                </g>
            </g>
        </g>
    </g>
</svg>