<?xml version="1.0" encoding="UTF-8"?>
<svg width="100px" height="100px" viewBox="0 0 100 100" version="1.1" xmlns="http://www.w3.org/2000/svg" xmlns:xlink="http://www.w3.org/1999/xlink">
    <!-- Generator: Sketch 46.2 (44496) - http://www.bohemiancoding.com/sketch -->
    <title>Group 14</title>
    <desc>Created with Sketch.</desc>
    <defs></defs>
    <g id="App-3.3" stroke="none" stroke-width="1" fill="none" fill-rule="evenodd">
        <g id="3.1-Counter-Offer" transform="translate(-670.000000, -579.000000)">
            <g id="Debt-Consolidation-Copy" transform="translate(590.000000, 549.000000)">
                <g id="Group-14" transform="translate(80.000000, 30.000000)">
                    <circle id="Oval-Copy" fill="#E2F4FE" cx="50" cy="50" r="50"></circle>
                    <g id="Group-10" transform="translate(50.000000, 50.500000) rotate(-90.000000) translate(-50.000000, -50.500000) translate(21.000000, 24.000000)">
                        <g id="Group-9-Copy" transform="translate(17.812574, 0.791990)">
                            <rect id="Rectangle-2" fill="#003362" transform="translate(20.146067, 13.278090) rotate(-270.000000) translate(-20.146067, -13.278090) " x="7.3258427" y="-6.41011236" width="25.6404494" height="39.3764045" rx="3"></rect>
                            <rect id="Rectangle-3-Copy-5" fill="#D8B342" x="4.66292135" y="8.15730337" width="7.3258427" height="5.49438202" rx="1"></rect>
                            <rect id="Rectangle-3-Copy-2" fill="#080707" x="19.3146067" y="17.3146067" width="5.49438202" height="1"></rect>
                            <rect id="Rectangle-3-Copy" fill="#080707" x="11.988764" y="17.3146067" width="5.49438202" height="1"></rect>
                            <rect id="Rectangle-3-Copy-6" fill="#080707" x="4.66292135" y="17.3146067" width="5.49438202" height="1"></rect>
                            <rect id="Rectangle-3-Copy-3" fill="#080707" x="26.6404494" y="17.3146067" width="5.49438202" height="1"></rect>
                        </g>
                        <g id="Group-9" transform="translate(25.410112, 32.471910) rotate(-360.000000) translate(-25.410112, -32.471910) translate(0.410112, 12.471910)">
                            <g id="Group-9-Copy-2" transform="translate(9.290703, 0.118694)">
                                <rect id="Rectangle-2" fill="#F8CC01" transform="translate(20.146067, 13.278090) rotate(-270.000000) translate(-20.146067, -13.278090) " x="7.3258427" y="-6.41011236" width="25.6404494" height="39.3764045" rx="3"></rect>
                                <rect id="Rectangle-3-Copy-5" fill="#959595" x="3.66292135" y="9.15730337" width="7.3258427" height="5.49438202" rx="1"></rect>
                                <rect id="Rectangle-3-Copy-4" fill="#9D7A10" x="3.66292135" y="21.9775281" width="12.8202247" height="1"></rect>
                            </g>
                            <g id="Group-12" transform="translate(-0.000000, 13.000000)">
                                <rect id="Rectangle-2" fill="#019ED5" transform="translate(20.146067, 13.278090) rotate(-270.000000) translate(-20.146067, -13.278090) " x="7.3258427" y="-6.41011236" width="25.6404494" height="39.3764045" rx="3"></rect>
                                <rect id="Rectangle-3" fill="#D8D8D8" x="3.66292135" y="18.3146067" width="5.49438202" height="1"></rect>
                                <rect id="Rectangle-3-Copy-5" fill="#DCD8DB" x="3.66292135" y="9.15730337" width="7.3258427" height="5.49438202" rx="1"></rect>
                                <rect id="Rectangle-3-Copy-4" fill="#D8D8D8" x="3.66292135" y="21.9775281" width="12.8202247" height="1"></rect>
                                <rect id="Rectangle-3-Copy-2" fill="#D8D8D8" x="18.3146067" y="18.3146067" width="5.49438202" height="1"></rect>
                                <rect id="Rectangle-3-Copy" fill="#D8D8D8" x="10.988764" y="18.3146067" width="5.49438202" height="1"></rect>
                                <rect id="Rectangle-3-Copy-3" fill="#D8D8D8" x="25.6404494" y="18.3146067" width="5.49438202" height="1"></rect>
                            </g>
                        </g>
                    </g>
                </g>
            </g>
        </g>
    </g>
</svg>